<svg xmlns="http://www.w3.org/2000/svg" viewBox="0 0 640 360" role="img" aria-label="ESG Disclosure Analyzer project thumbnail">
  <defs>
    <linearGradient id="bg" x1="0" y1="0" x2="1" y2="1">
      <stop offset="0" stop-color="#102014"/>
      <stop offset="0.5" stop-color="#184534"/>
      <stop offset="1" stop-color="#1d3557"/>
    </linearGradient>
    <linearGradient id="card" x1="0" y1="0" x2="1" y2="1">
      <stop offset="0" stop-color="#f8fafc"/>
      <stop offset="1" stop-color="#dbeafe"/>
    </linearGradient>
  </defs>
  <rect width="640" height="360" fill="url(#bg)"/>
  <circle cx="520" cy="82" r="92" fill="#22c55e" opacity="0.14"/>
  <circle cx="116" cy="286" r="118" fill="#38bdf8" opacity="0.14"/>
  <g transform="translate(92 58)">
    <rect width="230" height="252" rx="20" fill="url(#card)" opacity="0.96"/>
    <rect x="28" y="36" width="146" height="12" rx="6" fill="#0f172a" opacity="0.72"/>
    <rect x="28" y="76" width="172" height="10" rx="5" fill="#0f172a" opacity="0.36"/>
    <rect x="28" y="102" width="138" height="10" rx="5" fill="#0f172a" opacity="0.28"/>
    <rect x="28" y="128" width="162" height="10" rx="5" fill="#0f172a" opacity="0.28"/>
    <rect x="28" y="170" width="54" height="42" rx="10" fill="#22c55e" opacity="0.86"/>
    <rect x="94" y="150" width="54" height="62" rx="10" fill="#38bdf8" opacity="0.86"/>
    <rect x="160" y="116" width="54" height="96" rx="10" fill="#f59e0b" opacity="0.86"/>
  </g>
  <g transform="translate(360 88)">
    <rect width="190" height="174" rx="22" fill="#07111f" opacity="0.78"/>
    <circle cx="62" cy="68" r="28" fill="#22c55e"/>
    <path d="M52 70c10 15 28 11 32-8-16-4-27 0-32 8z" fill="#dcfce7"/>
    <circle cx="126" cy="108" r="30" fill="#38bdf8"/>
    <path d="M111 108h30M126 93v30" stroke="#e0f2fe" stroke-width="6" stroke-linecap="round"/>
    <path d="M38 140h116" stroke="#f8fafc" stroke-width="8" stroke-linecap="round" opacity="0.65"/>
  </g>
  <text x="92" y="334" fill="#f1f5f9" font-family="Inter, Arial, sans-serif" font-size="30" font-weight="700">ESG Disclosure Analyzer</text>
</svg>
