<svg xmlns="http://www.w3.org/2000/svg" viewBox="0 0 640 360" role="img" aria-label="IoT Energy Optimization project thumbnail">
  <defs>
    <linearGradient id="bg" x1="0" y1="0" x2="1" y2="1">
      <stop offset="0" stop-color="#111827"/>
      <stop offset="0.52" stop-color="#164e63"/>
      <stop offset="1" stop-color="#365314"/>
    </linearGradient>
    <linearGradient id="energy" x1="0" y1="0" x2="1" y2="1">
      <stop offset="0" stop-color="#fde047"/>
      <stop offset="1" stop-color="#22c55e"/>
    </linearGradient>
  </defs>
  <rect width="640" height="360" fill="url(#bg)"/>
  <g opacity="0.18" stroke="#ffffff" stroke-width="1" fill="none">
    <path d="M48 280h544M76 230h488M104 180h432M132 130h376"/>
  </g>
  <g transform="translate(86 82)">
    <path d="M0 86L94 12l94 74v128H0z" fill="#f8fafc" opacity="0.92"/>
    <path d="M94 12l94 74H0z" fill="#38bdf8" opacity="0.9"/>
    <rect x="38" y="128" width="42" height="86" rx="8" fill="#0f172a" opacity="0.72"/>
    <rect x="110" y="122" width="44" height="44" rx="8" fill="#0f172a" opacity="0.38"/>
  </g>
  <g transform="translate(334 84)">
    <rect x="0" y="0" width="190" height="190" rx="26" fill="#020617" opacity="0.72"/>
    <path d="M94 30l-34 78h46l-18 52 58-82h-48l26-48z" fill="url(#energy)"/>
    <path d="M28 146c34-30 61-30 96 0 16 13 30 20 42 20" fill="none" stroke="#38bdf8" stroke-width="7" stroke-linecap="round"/>
  </g>
  <g fill="#f8fafc">
    <circle cx="288" cy="142" r="12"/>
    <circle cx="288" cy="218" r="12"/>
    <circle cx="336" cy="180" r="12"/>
  </g>
  <g stroke="#7dd3fc" stroke-width="4" stroke-linecap="round">
    <path d="M188 168h88M288 142l48 38M288 218l48-38"/>
  </g>
  <text x="86" y="334" fill="#f8fafc" font-family="Inter, Arial, sans-serif" font-size="30" font-weight="700">IoT Energy Optimization</text>
</svg>
