<svg xmlns="http://www.w3.org/2000/svg" viewBox="0 0 640 360" role="img" aria-label="Provenance project thumbnail">
  <defs>
    <linearGradient id="bg" x1="0" y1="0" x2="1" y2="1">
      <stop offset="0" stop-color="#07111f"/>
      <stop offset="0.55" stop-color="#12324f"/>
      <stop offset="1" stop-color="#0f5b5f"/>
    </linearGradient>
    <linearGradient id="line" x1="0" y1="0" x2="1" y2="0">
      <stop offset="0" stop-color="#7dd3fc"/>
      <stop offset="1" stop-color="#34d399"/>
    </linearGradient>
  </defs>
  <rect width="640" height="360" fill="url(#bg)"/>
  <g opacity="0.16" fill="none" stroke="#ffffff" stroke-width="1">
    <path d="M60 78h520M60 132h520M60 186h520M60 240h520M60 294h520"/>
    <path d="M105 45v270M210 45v270M315 45v270M420 45v270M525 45v270"/>
  </g>
  <g fill="#f8fafc">
    <rect x="86" y="74" width="176" height="212" rx="18" fill="#f8fafc" opacity="0.94"/>
    <rect x="114" y="112" width="120" height="10" rx="5" fill="#0f172a" opacity="0.72"/>
    <rect x="114" y="144" width="92" height="8" rx="4" fill="#0f172a" opacity="0.45"/>
    <rect x="114" y="166" width="122" height="8" rx="4" fill="#0f172a" opacity="0.38"/>
    <rect x="114" y="188" width="104" height="8" rx="4" fill="#0f172a" opacity="0.38"/>
    <rect x="114" y="224" width="88" height="30" rx="15" fill="#22c55e" opacity="0.92"/>
  </g>
  <g fill="none" stroke="url(#line)" stroke-width="5" stroke-linecap="round" stroke-linejoin="round">
    <path d="M270 132c40-42 78-42 116 0s76 42 114 0"/>
    <path d="M270 230c40 42 78 42 116 0s76-42 114 0"/>
  </g>
  <g>
    <circle cx="310" cy="132" r="21" fill="#38bdf8"/>
    <circle cx="386" cy="132" r="21" fill="#22c55e"/>
    <circle cx="462" cy="132" r="21" fill="#a78bfa"/>
    <circle cx="310" cy="230" r="21" fill="#a78bfa"/>
    <circle cx="386" cy="230" r="21" fill="#38bdf8"/>
    <circle cx="462" cy="230" r="21" fill="#22c55e"/>
  </g>
  <rect x="508" y="88" width="58" height="58" rx="16" fill="#ffffff" opacity="0.92"/>
  <path d="M522 116l11 11 20-24" fill="none" stroke="#16a34a" stroke-width="6" stroke-linecap="round" stroke-linejoin="round"/>
  <text x="84" y="330" fill="#e5f3ff" font-family="Inter, Arial, sans-serif" font-size="30" font-weight="700">Provenance</text>
</svg>
